# xmcd
#
# Track frame offsets:
#	150
#	20731
#	40331
#	62636
#	81931
#	105464
#	131182
#	155782
#	191945
#	212222
#	250040
#	269048
#	300130
#
# Disc length: 4278 seconds
#
# Revision: 2
# Processed by: cddbd v1.5.2PL0 Copyright (c) Steve Scherf et al.
# Submitted via: audiograbber 1.83.01
#
DISCID=be10b40d
DTITLE=Various Artist - [Hellraiser MR034 CD2]
DYEAR=2002
DGENRE=Hardcore
TTITLE0=SRB - Satanic Verses
TTITLE1=Battlefield 0180 - All Kind Of Drugs
TTITLE2=Justice - Born To Raise Hell
TTITLE3=Virtual Darkness - Power Evolution
TTITLE4=E~Noid - Destination Death
TTITLE5=Vacorps - Lonely Solitaire
TTITLE6=D~Passion - Exposure
TTITLE7=The Producer - Last Man Standing
TTITLE8=Catkiller - Harthouse vs Terror
TTITLE9=Hidden - The Wrong Way
TTITLE10=MC Drokz - I Hate Alternative Rock
TTITLE11=Ancronyx - Check 6
TTITLE12=Weapon X - The MF Psycho
EXTD=
EXTT0=
EXTT1=
EXTT2=
EXTT3=
EXTT4=
EXTT5=
EXTT6=
EXTT7=
EXTT8=
EXTT9=
EXTT10=
EXTT11=
EXTT12=
PLAYORDER=
